HIERARCHY
ROOT Hips
{
  OFFSET 16.0539 101.952 -177.608
  CHANNELS 6 Xposition Yposition Zposition Zrotation Xrotation Yrotation
  JOINT RightUpLeg
  {
    OFFSET -8.9458 -8.66707 0.101652
    CHANNELS 3 Zrotation Xrotation Yrotation
    JOINT RightLeg
    {
      OFFSET 0 -44.4227 1.3727
      CHANNELS 3 Zrotation Xrotation Yrotation
      JOINT RightFoot
      {
        OFFSET 0.253549 -42.0924 -1.46059
        CHANNELS 3 Zrotation Xrotation Yrotation
        JOINT RightToes
        {
          OFFSET 0.04 -4.41509 8.4991
          CHANNELS 3 Zrotation Xrotation Yrotation
          End Site
          {
            OFFSET -0.08 -0.137448 9.77979
          }
        }
      }
    }
  }
  JOINT Spine
  {
    OFFSET 0 11.8905 0
    CHANNELS 3 Zrotation Xrotation Yrotation
    JOINT Spine1
    {
      OFFSET 0 25.6574 0.127663
      CHANNELS 3 Zrotation Xrotation Yrotation
      JOINT HEad
      {
        OFFSET 0 8.73416 0.011341
        CHANNELS 3 Zrotation Xrotation Yrotation
        End Site
        {
          OFFSET -0.29 12.7742 2.51395
        }
      }
      JOINT LeftShoulder1
      {
        OFFSET 8.99 -0.362252 -0.22
        CHANNELS 3 Zrotation Xrotation Yrotation
        JOINT LeftArm
        {
          OFFSET 10.2827 -0.00338 0.322123
          CHANNELS 3 Zrotation Xrotation Yrotation
          JOINT LeftForeArm
          {
            OFFSET 32.7669 0.099144 -1.42434
            CHANNELS 3 Zrotation Xrotation Yrotation
            JOINT LeftHand
            {
              OFFSET 27.5643 0.085362 1.02216
              CHANNELS 3 Zrotation Xrotation Yrotation
              End Site
              {
                OFFSET 16.7443 -0.6 1.50291
              }
            }
          }
        }
      }
      JOINT RightShoulder
      {
        OFFSET -8.99 -0.362252 -0.22
        CHANNELS 3 Zrotation Xrotation Yrotation
        JOINT RightArm
        {
          OFFSET -10.2827 -0.00338 0.322123
          CHANNELS 3 Zrotation Xrotation Yrotation
          JOINT RightForeArm
          {
            OFFSET -32.8971 0.099144 -1.42434
            CHANNELS 3 Zrotation Xrotation Yrotation
            JOINT RightHand
            {
              OFFSET -27.4921 0.085362 1.02216
              CHANNELS 3 Zrotation Xrotation Yrotation
              End Site
              {
                OFFSET -16.6312 -0.6 1.50291
              }
            }
          }
        }
      }
    }
  }
  JOINT LeftUpLeg
  {
    OFFSET 8.9458 -8.66707 0.101652
    CHANNELS 3 Zrotation Xrotation Yrotation
    JOINT LeftLeg
    {
      OFFSET 0 -44.4227 1.3727
      CHANNELS 3 Zrotation Xrotation Yrotation
      JOINT LeftFoot
      {
        OFFSET -0.253549 -42.0924 -1.46059
        CHANNELS 3 Zrotation Xrotation Yrotation
        JOINT LeftToes
        {
          OFFSET -0.04 -4.41509 8.4991
          CHANNELS 3 Zrotation Xrotation Yrotation
          End Site
          {
            OFFSET 0.08 -0.047448 9.77979
          }
        }
      }
    }
  }
}
MOTION
Frames:	10
Frame Time:	0.0166667
16.0539 101.952 -177.608 0.89808 0.294081 11.3655 5.12929 2.34955 0.537201 -10.0675 35.7 10.2125 -8.61331 4.78823 0.490053 0.0462048 0.000533964 0.662642 -1.78031 3.45963 -1.21473 -4.90434 -3.30352 -0.715402 13.3225 13.6367 -11.4222 -3.97569e-016 0 -3.18055e-015 -66.3084 -50.0113 21.3654 -17.1246 16.6937 -29.9959 0.368473 9.90896 -0.00117926 -0.165279 0.295425 0.0533396 87.4222 -27.2742 6.6223 19.6517 13.6488 9.16371 -0.369625 9.91382 0.00119887 -3.86931 -19.1235 -0.525436 -3.87122 19.6195 14.0178 2.4526 6.24886 -0.126461 -1.87136e-012 4.61753e-011 -3.75687e-011 
16.5472 101.935 -176.535 1.13518 0.0881379 10.8434 4.24238 0.718746 -0.702905 -10.4764 39.0047 12.1032 -6.69854 8.4361 0.534295 -3.44009 1.89023 0.552421 -2.14204 3.57032 -1.13155 -4.86053 -3.1699 -0.69762 13.372 14.0266 -11.4479 3.47873e-016 1.98785e-016 1.59028e-015 -66.1895 -50.279 21.6754 -17.069 16.6641 -29.8997 0.368473 9.90896 -0.00117926 -0.32234 0.284553 -0.0212965 87.432 -26.9469 6.97546 19.7382 13.6848 9.33788 -0.369625 9.91382 0.00119887 -3.78147 -18.4412 0.895751 -4.16414 20.4575 13.217 2.40099 4.94956 -0.095 -0.106258 -0.170275 0.0540512 
17.021 101.897 -175.481 1.41689 -0.105097 10.3226 3.31449 -1.00388 -2.11398 -11.3796 42.3221 14.329 -5.06546 11.7142 0.567426 -6.78112 4.0593 0.311243 -2.52167 3.66378 -1.06484 -4.92706 -3.01888 -0.680056 13.4678 14.3705 -11.4423 -7.45443e-016 1.98785e-016 -0 -66.0845 -50.4778 21.8625 -17.0135 16.6334 -29.7937 0.368473 9.90896 -0.00117926 -0.384552 0.276218 -0.0988284 87.4154 -26.6077 7.31582 19.8498 13.7497 9.646 -0.369625 9.91382 0.00119887 -3.83222 -17.7764 2.00949 -4.43259 21.2721 12.7089 2.38763 3.69992 -0.0653252 -0.238353 -0.294025 0.0814797 
17.4369 101.787 -174.473 1.85878 -0.266218 9.78665 2.30977 -2.98599 -4.23545 -13.3909 45.7307 17.6177 -4.08054 14.283 0.549281 -10.1617 6.6771 0.0670668 -2.98997 3.71979 -1.04191 -5.33003 -2.81909 -0.663402 13.6983 14.5747 -11.3191 5.46658e-016 -2.98177e-016 3.18055e-015 -65.9753 -50.499 21.771 -16.9629 16.6047 -29.6758 0.368473 9.90896 -0.00117926 -0.18228 0.276075 -0.174137 87.3666 -26.2569 7.64849 19.9989 13.8802 10.2926 -0.369625 9.91382 0.00119887 -4.19955 -17.1998 2.29389 -4.70829 22.0722 13.0816 2.4709 2.5494 -0.0391782 -0.387918 -0.235353 0.0234618 
17.8321 101.669 -173.493 2.31006 -0.399059 9.29021 1.29132 -5.0696 -6.15786 -15.9571 49.1387 20.6642 -3.73233 15.6827 0.538287 -12.3183 10.3503 -1.10885 -3.40418 3.73005 -1.04683 -5.83215 -2.59517 -0.646433 13.9793 14.737 -11.2091 -9.93923e-017 1.98785e-016 1.59028e-015 -65.9995 -50.3994 21.3536 -16.903 16.5644 -29.5131 0.368473 9.90896 -0.00117926 0.15514 0.277306 -0.274164 87.2148 -25.8486 7.91469 20.2395 14.0746 11.2023 -0.369625 9.91382 0.00119887 -4.68532 -16.6327 2.15418 -4.98172 22.7211 13.7946 2.62173 1.54826 -0.0175326 -0.685197 -0.215856 -0.0500303 
18.243 101.594 -172.531 2.66049 -0.493476 8.90079 0.49141 -7.19059 -6.97406 -18.0082 52.8603 21.9398 -4.19411 14.9792 0.593905 -12.5736 17.1783 -4.33214 -3.62538 3.66801 -1.07589 -6.27755 -2.35428 -0.627536 14.2887 14.9532 -11.2697 5.46658e-016 1.98785e-016 -0 -66.3082 -50.1887 20.4637 -16.8188 16.4954 -29.2601 0.368473 9.90896 -0.00117926 0.572995 0.273315 -0.447683 86.8373 -25.2874 8.06021 20.6747 14.3454 12.3782 -0.369625 9.91382 0.00119887 -5.22232 -16.005 1.68386 -5.21079 23.0387 14.5275 2.85046 0.805186 -0.00316542 -1.43155 -0.485922 -0.0935151 
18.6334 101.558 -171.581 2.90588 -0.571837 8.56386 -0.109208 -9.30189 -7.18254 -19.6304 56.4785 21.3592 -5.29621 13.2549 0.677586 -7.40159 22.5886 -9.48513 -3.71369 3.56821 -1.11963 -6.64806 -2.11746 -0.608558 14.5331 15.1347 -11.3384 -1.04362e-015 0 -0 -66.8018 -49.874 19.2733 -16.7163 16.4091 -28.9528 0.368473 9.90896 -0.00117926 1.01689 0.269079 -0.624075 86.3902 -24.7229 8.08009 21.1556 14.6788 13.7923 -0.369625 9.91382 0.00119887 -5.64634 -15.342 1.27962 -5.39722 23.1895 15.1569 3.09661 0.194365 0.00750296 -2.10712 -0.823276 -0.0923571 
18.9717 101.584 -170.632 2.99163 -0.649843 8.23165 -0.483552 -11.3464 -6.85152 -20.2755 59.5413 17.1905 -7.13089 11.276 0.797034 8.35302 21.6447 -17.622 -3.65219 3.44587 -1.1744 -6.86755 -1.91963 -0.591941 14.5738 15.2101 -11.2249 -1.2424e-017 9.93923e-017 -1.59028e-015 -67.3836 -49.4258 17.9295 -16.6214 16.3129 -28.5839 0.368473 9.90896 -0.00117926 1.40959 0.270983 -0.710025 86.0034 -24.3052 7.91484 21.5528 15.0807 15.4963 -0.369625 9.91382 0.00119887 -5.75154 -14.6447 1.42776 -5.55953 23.2748 15.4593 3.28694 -0.389723 0.0175731 -2.1533 -1.08379 0.0103597 
19.2807 101.639 -169.692 2.95486 -0.737988 7.95147 -0.654854 -13.2759 -6.34505 -19.7694 61.7974 11.5441 -9.08702 9.05723 0.87578 23.8312 17.7956 -23.8833 -3.53294 3.33246 -1.21913 -6.95385 -1.72635 -0.574267 14.5174 15.225 -11.1688 -3.85145e-016 1.98785e-016 -0 -68.1895 -48.9691 16.3653 -16.4591 16.2016 -28.2365 0.368473 9.90896 -0.00117926 1.76512 0.268213 -0.822397 85.6407 -23.934 7.67409 21.905 15.498 17.2567 -0.369625 9.91382 0.00119887 -5.68664 -13.9255 1.92816 -5.61156 23.3176 15.4223 3.47122 -0.899248 0.0256241 -1.98333 -1.2834 0.133345 
19.5731 101.696 -168.773 2.79079 -0.847772 7.79104 -0.720679 -15.0154 -6.15597 -19.3632 63.1184 7.4569 -10.6042 6.86118 0.823196 30.4719 12.5798 -23.0891 -3.44225 3.27419 -1.22785 -6.88264 -1.50796 -0.551815 14.4108 15.1738 -11.4705 -1.94436e-015 -1.98785e-016 1.59028e-015 -69.4469 -48.6583 14.4401 -16.1131 16.0598 -27.9771 0.368473 9.90896 -0.00117926 2.09038 0.248001 -1.08968 85.2846 -23.5804 7.43013 22.2263 15.9052 18.8808 -0.369625 9.91382 0.00119887 -5.50855 -13.2186 2.84567 -5.42181 23.4052 14.8145 3.70711 -1.3171 0.0302916 -1.84428 -1.36118 0.198042 
